<svg width="100" height="30" viewBox="0 0 100 30" fill="none" xmlns="http://www.w3.org/2000/svg">
    <path d="M5.56607 0L5.6106 0.0148549L11.1767 11.4978H6.82771L5.53638 8.7348L4.23021 11.4978H0L5.56607 0Z" fill="#DCE1E6"/>
    <path d="M15.5537 11.4384H11.5461V1.03986H15.5388V5.15472H15.8505C17.8395 5.15472 19.5761 6.22429 19.5761 8.27429C19.5761 9.07646 19.2792 10.1015 18.2699 10.7699C17.3645 11.3641 16.2216 11.4384 15.5537 11.4384ZM20.1104 1.03986H24.2219V11.4384H20.1104V1.03986Z" fill="#DCE1E6"/>
    <path d="M30.6093 4.56051V1.03986H34.4981V4.56051L36.2348 1.03986H40.4501L37.4519 6.10544L40.3908 11.4384H24.7167L27.6556 6.10544L24.6573 1.03986H28.8727L30.6093 4.56051Z" fill="#DCE1E6"/>
    <path d="M50.6802 0.519929V11.4384H46.5242V8.28914L40.8839 12.1515V1.03986H45.0399V4.44167L50.6802 0.519929Z" fill="#DCE1E6"/>
    <path d="M0.964785 19.2003H10.4791V29.5989H6.36758V22.5873H5.07626V29.5989H0.964785V19.2003Z" fill="#DCE1E6"/>
    <path d="M11.8215 19.2003H15.5025C17.2688 19.2003 20.2819 19.75 20.2819 22.8993C20.2819 25.3949 18.3227 26.7022 16.2447 26.7022H15.9775V29.5989H11.8215V19.2003Z" fill="#DCE1E6"/>
    <path d="M20.6513 24.3996C20.6513 21.3246 23.1152 18.7993 26.1134 18.7993C29.1117 18.7993 31.5756 21.3246 31.5756 24.3996C31.5756 27.4746 29.1117 30 26.1134 30C23.1152 30 20.6513 27.4746 20.6513 24.3996ZM25.1487 24.3996C25.1487 24.9344 25.5791 25.3652 26.1134 25.3652C26.6478 25.3652 27.0782 24.9344 27.0782 24.3996C27.0782 23.8648 26.6478 23.434 26.1134 23.434C25.5791 23.434 25.1487 23.8648 25.1487 24.3996Z" fill="#DCE1E6"/>
    <path d="M37.6888 18.1011L42.2604 25.7366H44.2493L42.3346 29.5989H33.043L31.1282 25.7366H33.1172L37.6888 18.1011Z" fill="#DCE1E6"/>
    <path d="M49.1135 18.1011H49.158L54.917 29.5989H50.5087L50.0337 28.5591H48.0745L47.5995 29.5989H43.3545L49.1135 18.1011Z" fill="#DCE1E6"/>
    <path d="M54.9006 19.2003H58.7894V22.1565L60.526 19.2003H64.7414L61.3275 24.8007L65.0828 29.5989H54.9006V19.2003Z" fill="#DCE1E6"/>
    <path d="M69.3421 26.212H70.5147V19.2003H74.4183V26.212H75.5909V19.2003H79.4946V29.5989H65.4384V19.2003H69.3421V26.212Z" fill="#DCE1E6"/>
    <path d="M89.5894 19.2003V22.7359H87.4668V24.8453H84.8248V25.7366H89.5894V29.5989H80.8321V19.2003H89.5894Z" fill="#DCE1E6"/>
    <path d="M90.4857 19.2003H94.5972V22.0377H95.8885V19.2003H100V29.5989H95.8885V26.5091H94.5972V29.5989H90.4857V19.2003Z" fill="#DCE1E6"/>
</svg>